<?xml version="1.0" encoding="utf-8"?>
<!-- Réalisé par Ninatasia - DesignEya.FR  -->
<svg version="1.1" id="Calque_1" xmlns="http://www.w3.org/2000/svg" xmlns:xlink="http://www.w3.org/1999/xlink" x="0px" y="0px"
	 viewBox="0 0 1622 623.7" style="enable-background:new 0 0 1622 623.7;" xml:space="preserve">
<style type="text/css">
	.st0{fill:url(#SVGID_1_);}
	.st1{fill:#FFFFFF;}
</style>
<g>
	
		<linearGradient id="SVGID_1_" gradientUnits="userSpaceOnUse" x1="140.4266" y1="538.4821" x2="413.2702" y2="65.9034" gradientTransform="matrix(1 0 0 -1 0 623.74)">
		<stop  offset="0" style="stop-color:#19B5FE"/>
		<stop  offset="1" style="stop-color:#4D05E8"/>
	</linearGradient>
	<path class="st0" d="M457.3,156L307.5,6.2c-0.6-1.2-1.9-1.9-3.1-2.5c0,0,0,0-0.6-0.6l0,0C300.7,0.6,297,0,293.3,0
		s-6.8,1.2-10.6,3.1l0,0c0,0,0,0-0.6,0.6c-3.7,3.1-6.8,7.4-7.4,13.1l0,0c0,0.6,0,1.2,0,1.9l0,0v507.2c0,13.1-15.6,19.3-24.9,10.6
		L31.4,317.5c-3.7-3.7-8.1-5.6-13.1-5.6l0,0C2.1,311.9-6,331.8,5.2,343l274.5,274.5c0.6,1.2,1.9,1.9,3.1,2.5c0,0,0,0,0.6,0.6l0,0
		c3.1,2.5,6.8,3.1,10.6,3.1c3.7,0,6.8-1.2,10.6-3.1l0,0c0,0,0,0,0.6-0.6c1.2-0.6,1.9-1.9,3.1-2.5L458,467.8
		C543.4,381.8,543.4,242.1,457.3,156z M336.9,535.8c-9.4,9.4-24.9,2.5-24.9-10.6V98c0-13.1,15.6-19.3,24.9-10.6l89.2,89.2
		c74.8,74.8,74.8,195.3,0,270.1L336.9,535.8z"/>
	<g id="Léo_Delsart_11_">
		<g>
			<path class="st1" d="M958.2,230.8h55.5c36.8,0,54.9,18.7,54.9,56.1v50.5c0,16.2-5,30-14.4,39.9c-10,10-23.1,15-40.5,15h-55.5
				L958.2,230.8L958.2,230.8z M1054.3,286.3c0-30.6-13.7-43-41.1-43H972V378h41.1c26.2,0,41.1-15.6,41.1-41.1V286.3z"/>
			<path class="st1" d="M1099.2,278.9h68v9.4h-58v40.5h49.3v9.4h-49.3v45h58v9.4h-68V278.9z"/>
			<path class="st1" d="M1190.3,278.9h10v103.6h53v9.4h-63.1V278.9H1190.3z"/>
			<path class="st1" d="M1333.2,278.9v9.4h-32.5c-17.5,0-26.2,5.6-26.2,19.3c0,6.8,1.9,11.3,5.6,14.4c3.1,1.9,4.3,3.1,9.4,4.3
				c5,1.2,6.8,1.9,12.5,3.1c8.7,1.9,14.4,3.1,20.6,6.2c8.1,3.7,13.1,10.6,13.1,23.1c0,23.1-11.9,33.7-34.9,33.7h-36.2v-9.4h36.2
				c16.8,0,24.9-6.8,24.9-24.9c0-6.2-1.9-10.6-5.6-13.1s-10-5-19.9-6.8l-7.4-1.2c-3.1-0.6-10.6-2.5-13.7-4.3
				c-3.1-1.9-8.1-5-10.6-8.7c-1.9-3.7-3.7-9.4-3.7-15.6c0-19.3,11.9-28.7,35.6-28.7h33.1v-0.8L1333.2,278.9L1333.2,278.9z"/>
			<path class="st1" d="M1388.1,278.9h9.4l40.5,112.8h-10.6l-11.3-31.8h-46.8l-11.3,31.8h-10.6L1388.1,278.9z M1412.4,351.2
				l-19.9-55.5h-0.6l-19.3,55.5H1412.4z"/>
			<path class="st1" d="M1457.3,278.9h43.6c8.1,0,15.6,3.1,21.2,8.7c6.2,5.6,8.7,12.5,8.7,21.2c0,7.4-2.5,13.7-7.4,19.3
				c-4.9,5.6-11.3,8.7-18.1,10h-3.1l29.4,54.3h-11.3l-29.4-53.6H1466v53.6h-10V278.9H1457.3z M1466.6,329.4h33.7
				c11.3,0,20.6-9.4,20.6-20.6c0-5.6-1.9-10.6-6.2-14.4c-3.7-3.7-8.7-6.2-14.4-6.2h-33.7V329.4z"/>
			<path class="st1" d="M1539.6,278.9h82.4v8.7h-36.2v104.2h-10V287.6h-36.2V278.9L1539.6,278.9z"/>
			<path class="st1" d="M598.9,230.8h14.4v148.4h76.1v13.1H599V230.8H598.9z"/>
			<path class="st1" d="M710.5,278.9h68v9.4h-57.9v40.5h49.3v9.4h-49.3v45h58v9.4h-68.1V278.9z M724.3,253.9l29.4-13.7l2.4,7.4
				l-29.4,13.1L724.3,253.9z"/>
			<path class="st1" d="M842.8,278.3c25.5,0,38.7,13.1,38.7,39.3V355c0,11.3-3.1,20.6-10,28.1c-6.8,6.8-16.2,10.6-28.1,10.6H836
				c-11.9,0-21.2-3.7-28.1-10.6c-6.8-6.8-10-16.2-10-28.1v-37.4c0-26.2,12.5-39.3,38.7-39.3C836.5,278.3,842.8,278.3,842.8,278.3z
				 M871.5,317.5c0-21.2-9.4-30-28.7-30h-7.4c-18.7,0-28.7,8.7-28.7,30v37.4c0,18.1,10.6,29.4,28.7,29.4h7.4
				c18.1,0,28.7-11.3,28.7-29.4V317.5z"/>
		</g>
	</g>
</g>
</svg>
